<?xml version="1.0" standalone="no"?>
<!DOCTYPE svg PUBLIC "-//W3C//DTD SVG 20010904//EN"
 "http://www.w3.org/TR/2001/REC-SVG-20010904/DTD/svg10.dtd">
<svg version="1.0" xmlns="http://www.w3.org/2000/svg"
 width="512.000000pt" height="512.000000pt" viewBox="0 0 512.000000 512.000000"
 preserveAspectRatio="xMidYMid meet">
<metadata>
Created by potrace 1.11, written by Peter Selinger 2001-2013
</metadata>
<g transform="translate(0.000000,512.000000) scale(0.100000,-0.100000)"
fill="#000000" stroke="none">
<path d="M1053 4785 c-17 -7 -43 -30 -59 -50 -27 -36 -28 -42 -29 -146 0 -60
-2 -109 -5 -110 -3 0 -125 -2 -272 -2 -252 -2 -268 -3 -294 -23 -15 -11 -37
-33 -48 -48 -20 -27 -21 -40 -23 -529 -1 -276 -2 -507 -3 -513 0 -8 -27 -12
-82 -11 -46 0 -101 -3 -122 -7 -48 -9 -103 -62 -111 -108 -3 -18 -4 -661 -3
-1428 3 -1377 3 -1395 23 -1422 11 -15 37 -36 58 -47 36 -18 98 -19 2490 -17
l2452 1 31 22 c69 49 64 -59 64 1496 l0 1404 -23 33 c-38 58 -75 72 -187 74
-54 1 -102 4 -105 8 -4 3 -7 233 -8 511 -2 494 -2 506 -23 533 -11 15 -33 37
-48 48 -26 20 -41 21 -292 22 -145 1 -267 3 -269 6 -3 3 -7 53 -8 112 -4 115
-12 137 -71 180 -27 21 -29 21 -1515 22 -1187 1 -1494 -1 -1518 -11z m-88
-716 c1 -122 19 -164 83 -195 35 -17 116 -18 1518 -18 l1480 -1 43 28 c23 15
47 40 53 55 9 23 16 102 18 208 l0 32 168 -2 167 -1 3 -407 c2 -383 1 -408
-15 -409 -10 -1 -129 -3 -266 -3 l-247 -2 -11 38 c-20 77 -93 129 -164 119
-61 -9 -119 -63 -128 -119 -2 -12 -7 -25 -11 -29 -8 -9 -525 -12 -527 -3 0 3
-2 14 -3 25 -9 68 -84 129 -154 127 -65 -3 -127 -57 -141 -123 l-7 -34 -267
-1 -267 -2 0 28 c0 36 -37 89 -78 113 -93 55 -214 -16 -221 -130 -1 -8 -73
-11 -268 -10 l-267 2 -1 27 c-2 26 -25 69 -51 95 -34 35 -113 43 -168 17 -37
-18 -76 -77 -76 -117 l0 -24 -270 -1 -270 -1 0 413 0 413 172 -1 172 -1 1
-106z"/>
</g>
</svg>
